<svg width="356" height="59" viewBox="0 0 356 59" fill="none" xmlns="http://www.w3.org/2000/svg">
<g clip-path="url(#clip0_1_2)">
<path fill-rule="evenodd" clip-rule="evenodd" d="M62.9305 0.381536C62.8796 0.383856 62.8289 0.390185 62.779 0.400465C57.4283 0.425294 52.5002 1.53226 48.0257 3.40263C48 3.41165 47.9748 3.42176 47.95 3.43291C47.9083 3.45043 47.8628 3.46069 47.8212 3.47834C47.7381 3.51403 47.6604 3.56118 47.5903 3.61842C47.2237 3.792 46.8207 3.99962 46.3902 4.23551C46.3645 4.24578 46.3392 4.25715 46.3145 4.26958C46.268 4.29317 46.2246 4.32156 46.1782 4.3453C45.9914 4.4487 45.883 4.50274 45.705 4.60273C39.3967 7.92342 34.0763 12.6 29.7856 17.8493C28.961 17.5044 28.1141 17.2456 27.2377 17.1376V17.1414C23.9683 16.7384 20.4122 17.921 17.1068 20.2344C12.6997 23.3191 8.62003 28.4394 5.85914 34.9007C5.7751 35.098 5.75885 35.3176 5.81295 35.5251C5.86705 35.7326 5.98843 35.9163 6.1581 36.0475C6.32777 36.1786 6.53614 36.2498 6.75058 36.2498C6.96503 36.2499 7.17344 36.1789 7.34319 36.0478C11.3431 32.9453 14.4532 31.2729 16.6298 30.8802C17.7181 30.6838 18.548 30.7852 19.242 31.1149C19.8404 31.3986 20.3669 31.8848 20.8472 32.6103C20.7226 32.8999 20.5686 33.1923 20.4497 33.481C20.3766 33.6583 20.3577 33.8533 20.3955 34.0413C20.4332 34.2293 20.5259 34.4019 20.6617 34.5373L22.7439 36.6195C20.9361 39.3438 19.0742 42.4451 17.0614 45.9212C17.058 45.9212 17.0535 45.9208 17.05 45.9402C17.0421 45.9539 17.0346 45.9677 17.0273 45.9818C17.0234 45.9906 17.0196 45.9994 17.016 46.0083C17.0134 46.0146 17.0109 46.0209 17.0084 46.0272C16.9972 46.052 16.9871 46.0773 16.9781 46.103C16.9755 46.1092 16.973 46.1156 16.9705 46.1219C16.9633 46.1456 16.957 46.1696 16.9516 46.1938C16.9437 46.225 16.9374 46.2566 16.9327 46.2885C16.9296 46.3073 16.9271 46.3263 16.9251 46.3453C16.9236 46.3578 16.9223 46.3705 16.9213 46.3831C16.9212 46.3907 16.9212 46.3983 16.9213 46.4058C16.9209 46.4387 16.9222 46.4715 16.9251 46.5043C16.9266 46.5296 16.9292 46.5548 16.9327 46.58C16.9339 46.5863 16.9351 46.5926 16.9365 46.5989C16.9425 46.6308 16.95 46.6624 16.9592 46.6935C16.9679 46.723 16.978 46.7521 16.9895 46.7806C16.9986 46.805 17.0087 46.829 17.0198 46.8526C17.0324 46.8797 17.0463 46.9062 17.0614 46.9321C17.0627 46.9321 17.0639 46.9321 17.0652 46.9321C17.0689 46.9384 17.0727 46.9447 17.0765 46.951C17.0909 46.9718 17.106 46.992 17.122 47.0116C17.1257 47.0179 17.1295 47.0242 17.1333 47.0305C17.1502 47.0514 17.1678 47.0716 17.1863 47.0911C17.2022 47.1068 17.2186 47.1219 17.2356 47.1365C17.2417 47.1442 17.2481 47.1517 17.2545 47.1592C17.2594 47.1656 17.2645 47.1719 17.2696 47.1781C17.2892 47.1941 17.3094 47.2092 17.3302 47.2236C17.3352 47.2299 17.3402 47.2362 17.3453 47.2425C17.3674 47.2586 17.3901 47.2737 17.4135 47.2879C17.4417 47.3045 17.4708 47.3197 17.5006 47.3334C17.5155 47.34 17.5307 47.3464 17.546 47.3523C17.5597 47.3589 17.5736 47.3652 17.5876 47.3712C17.5939 47.3713 17.6003 47.3713 17.6066 47.3712C17.6315 47.3785 17.6568 47.3848 17.6823 47.3901C17.7048 47.3973 17.7275 47.4036 17.7504 47.4091C17.7656 47.4094 17.7807 47.4094 17.7959 47.4091C17.8223 47.4102 17.8489 47.4102 17.8754 47.4091C17.8804 47.4091 17.8855 47.4091 17.8905 47.4091C17.9553 47.4092 18.02 47.4029 18.0836 47.3901C18.1142 47.384 18.1445 47.3765 18.1744 47.3674C18.2066 47.3577 18.2381 47.3463 18.2691 47.3334C18.3055 47.3179 18.3409 47.3002 18.3751 47.2803C18.3976 47.261 18.4132 47.2561 18.4357 47.2425C21.8938 45.2357 24.9839 43.3777 27.6996 41.5751L29.7098 43.5854C29.8452 43.7212 30.0178 43.8139 30.2058 43.8516C30.3938 43.8894 30.5888 43.8705 30.7661 43.7974C31.0492 43.6808 31.3375 43.5295 31.6217 43.4074C33.1803 44.4281 33.7355 45.6209 33.3897 47.6514C33.0154 49.8487 31.3677 52.975 28.2674 56.9721C28.1364 57.1418 28.0653 57.3502 28.0654 57.5647C28.0655 57.7791 28.1366 57.9875 28.2678 58.1571C28.3989 58.3268 28.5826 58.4482 28.7902 58.5023C28.9977 58.5564 29.2173 58.5402 29.4146 58.4561C35.876 55.6951 40.9962 51.6156 44.0808 47.2084C47.0248 43.0025 48.1004 38.3972 46.447 34.488C51.6651 30.2684 56.3329 25.0521 59.6557 18.8715C59.7904 18.6356 59.8728 18.4791 60.0192 18.2241C60.3242 17.6926 60.5911 17.1948 60.8104 16.7325C60.8428 16.6834 60.8707 16.6315 60.8937 16.5773C60.8952 16.5737 60.8959 16.5696 60.8975 16.5659C60.9137 16.5296 60.9468 16.4802 60.9618 16.4448C60.9925 16.372 61.0141 16.2957 61.0262 16.2176C62.8824 11.7163 63.93 6.70785 63.9299 1.35071C63.9299 1.22312 63.9047 1.09679 63.8558 0.978961C63.8068 0.861134 63.7351 0.75413 63.6447 0.664087C63.5543 0.574044 63.447 0.502734 63.329 0.454247C63.211 0.40576 63.0846 0.381051 62.957 0.381536C62.9557 0.381534 62.9544 0.381534 62.9532 0.381536C62.9456 0.381448 62.938 0.381448 62.9305 0.381536ZM61.8856 2.42967C61.7667 6.64997 60.9539 10.5948 59.6065 14.2301L50.1419 4.76931C53.7734 3.40586 57.674 2.55518 61.8856 2.42967ZM48.037 5.57948L58.8115 16.3767C58.7258 16.5423 58.6236 16.7284 58.5276 16.9067C58.5263 16.9079 58.525 16.9092 58.5238 16.9105C58.4906 16.9558 58.4615 17.0039 58.4367 17.0543C58.2709 17.3814 58.0843 17.6941 57.9105 18.0159C57.7246 18.3403 57.5125 18.7017 57.3842 18.9548C57.3653 18.9928 57.3488 19.032 57.335 19.0722C51.1289 29.8247 40.5194 37.513 30.5882 41.7228L29.3199 40.4545C30.9451 39.3146 32.4597 38.1851 33.7153 37.0548C37.3567 33.7767 39.4221 30.291 38.9624 26.3144C38.955 26.2436 38.9397 26.1738 38.917 26.1062L38.898 26.0608C38.8242 25.8476 38.6782 25.6668 38.4854 25.5497L38.4097 25.5043C38.291 25.4314 38.158 25.3849 38.0197 25.368V25.3491C34.0434 24.8891 30.5516 26.956 27.2718 30.5962C26.1384 31.8542 25.0066 33.3708 23.8645 34.9991L22.5243 33.6589C26.7295 23.7453 34.4003 13.3008 45.1447 7.10895C45.1875 7.09422 45.2292 7.07651 45.2696 7.05595C45.986 6.6925 47.2051 6.0086 48.037 5.57948ZM45.5876 13.9386C44.3587 13.9386 43.1268 14.4043 42.1955 15.3355C40.3328 17.1983 40.3366 20.2494 42.1993 22.1122C44.062 23.9749 47.1094 23.9749 48.9721 22.1122C50.8348 20.2494 50.8386 17.1983 48.9759 15.3355C48.0446 14.4043 46.8165 13.9386 45.5876 13.9386ZM45.5876 15.8656C46.3163 15.8656 47.0445 16.1451 47.6054 16.706C48.7274 17.8279 48.7236 19.6198 47.6017 20.7417C46.4797 21.8636 44.6917 21.8636 43.5698 20.7417C42.4478 19.6198 42.4441 17.8279 43.566 16.706C44.1269 16.1451 44.8589 15.8656 45.5876 15.8656ZM25.2615 19.0684C26.3201 19.0795 27.3128 19.3663 28.2939 19.6741C27.9766 20.1061 27.67 20.5616 27.3588 21.0067C27.335 21.0402 27.3145 21.0755 27.2907 21.1089C26.5336 22.1961 25.7924 23.3161 25.0798 24.4859C24.4796 25.458 23.9311 26.4336 23.3951 27.4161C23.3005 27.5916 23.2045 27.7612 23.1112 27.9386C22.5858 28.9234 22.0951 29.9025 21.6347 30.8877C21.1384 30.3382 20.72 29.6678 20.0749 29.362C18.963 28.8348 17.67 28.7222 16.2853 28.9721C14.4017 29.3119 12.1652 30.5121 9.7169 32.0992C12.1677 27.7528 15.0582 24.031 18.2161 21.8207C20.2352 20.4074 22.2589 19.5064 24.1788 19.1592C24.5483 19.0924 24.9086 19.0647 25.2615 19.0684ZM36.8575 27.4578C36.8327 30.2662 35.4816 32.8383 32.4167 35.5973C29.6675 38.0722 25.5249 40.7041 20.7677 43.5437C23.6051 38.7839 26.2344 34.6391 28.7104 31.891C31.4717 28.8263 34.0466 27.4806 36.8575 27.4578ZM44.6411 36.0024C45.5917 39.0134 45.0008 42.5149 42.4946 46.0954C40.281 49.258 36.5491 52.1533 32.1933 54.6059C33.7816 52.1386 34.9772 49.8808 35.3015 47.9769C35.676 45.7782 34.7919 44.0074 33.3367 42.6238C34.3546 42.1499 35.3682 41.6447 36.388 41.1019C36.4383 41.0758 36.4855 41.0486 36.5357 41.0224C37.4351 40.5407 38.3341 40.0733 39.2274 39.5383C41.1399 38.4223 42.9422 37.2395 44.6411 36.0024ZM19.0035 40.7119L11.4432 48.276L12.3594 49.196L16.3686 45.1868C17.272 43.6284 18.1484 42.1306 19.0035 40.7119ZM23.5276 45.3723C22.1079 46.2285 20.6109 47.1062 19.0527 48.011L14.1955 52.8682L15.1155 53.7844L23.5276 45.3723ZM16.1301 47.2614L10.5233 52.8682L11.4432 53.7844L17.05 48.1776C17.0258 48.1776 17.0011 48.1589 16.9781 48.1473C16.9704 48.1411 16.9629 48.1348 16.9554 48.1284C16.9246 48.109 16.8943 48.091 16.8645 48.0716L16.8759 48.0905C16.8398 48.0692 16.8045 48.0438 16.7699 48.0186C16.7283 47.9895 16.6879 47.9569 16.6487 47.9239C16.6411 47.9165 16.6335 47.9089 16.626 47.9012C16.6105 47.8878 16.5953 47.8739 16.5806 47.8596C16.5768 47.8596 16.573 47.8596 16.5692 47.8596C16.568 47.8596 16.5667 47.8596 16.5655 47.8596C16.5616 47.8533 16.5578 47.847 16.5541 47.8407C16.5405 47.8213 16.5257 47.8222 16.5125 47.8028C16.5073 47.7953 16.5023 47.7877 16.4973 47.7801C16.481 47.7607 16.4638 47.754 16.4481 47.7346C16.4193 47.7036 16.3915 47.673 16.3648 47.64C16.3622 47.6325 16.3597 47.6249 16.3572 47.6173C16.323 47.5746 16.2966 47.5275 16.2664 47.481C16.2204 47.4238 16.181 47.3616 16.149 47.2955C16.1434 47.2777 16.1356 47.2729 16.1301 47.2614ZM10.5233 49.196L9.60333 50.1121L10.5233 51.0321L11.4395 50.1121L10.5233 49.196ZM9.60333 53.7844L8.68716 54.7044L9.60333 55.6205L10.5233 54.7044L9.60333 53.7844ZM13.2756 53.7844L12.3594 54.7044L13.2756 55.6205L14.1955 54.7044L13.2756 53.7844Z" fill="#1989AC"/>
<path d="M89.7423 12.908C91.0205 12.908 92.0909 13.0198 92.9538 13.2435L92.4744 17.0782C91.7714 16.7906 90.9566 16.6468 90.0299 16.6468C88.7197 16.6468 87.777 17.0063 87.2019 17.7253C86.6267 18.4442 86.3391 19.7145 86.3391 21.5359V27.0002H91.4679V30.739H86.2911V49.7203H81.9772V30.739H77.0881V27.0002H81.9772V21.7276C81.9772 18.6918 82.5923 16.4632 83.8226 15.041C85.0529 13.6189 87.0262 12.908 89.7423 12.908ZM98.7536 15.6881C99.6164 15.6881 100.359 15.9997 100.983 16.6229C101.606 17.246 101.917 17.9889 101.917 18.8517C101.917 19.7465 101.598 20.4974 100.959 21.1046C100.319 21.7118 99.5845 22.0153 98.7537 22.0153C97.859 22.0153 97.108 21.7118 96.5008 21.1046C95.8937 20.4974 95.5901 19.7465 95.5901 18.8517C95.5901 17.957 95.9097 17.206 96.5488 16.5988C97.1879 15.9917 97.9228 15.6881 98.7536 15.6881ZM100.911 27.0002V49.7203H96.5967V27.0002H100.911ZM119.652 26.425C122.209 26.425 124.214 27.192 125.668 28.7258C127.122 30.2596 127.865 32.3208 127.897 34.9091V49.7203H123.583V36.1554C123.583 34.3978 123.127 33.0079 122.217 31.9852C121.306 30.9626 120.036 30.4514 118.406 30.4514C116.393 30.4514 114.835 31.1224 113.733 32.4645C112.63 33.8067 112.079 35.5962 112.079 37.833V49.7203H107.765V27.0002H112.079V30.4993H112.175C112.782 29.2211 113.765 28.2225 115.123 27.5035C116.481 26.7845 117.991 26.425 119.652 26.425ZM157.184 13.4832L157.183 49.7203H152.87V46.4609H152.774C151.943 47.6752 150.816 48.6179 149.394 49.2889C147.972 49.96 146.463 50.2955 144.865 50.2955C141.446 50.2635 138.673 49.1291 136.548 46.8923C134.424 44.6555 133.345 41.8114 133.313 38.3603C133.313 34.8772 134.376 32.0332 136.501 29.8283C138.626 27.6233 141.414 26.489 144.865 26.425C146.431 26.425 147.932 26.7606 149.37 27.4316C150.808 28.1027 151.943 29.0454 152.774 30.2596H152.87V13.4832H157.184ZM137.915 38.3603C137.915 40.693 138.602 42.5862 139.976 44.0403C141.35 45.4943 143.155 46.2372 145.392 46.2692C147.661 46.2692 149.474 45.5422 150.832 44.0882C152.191 42.6343 152.87 40.725 152.87 38.3603C152.87 36.0275 152.199 34.1343 150.856 32.6802C149.514 31.2262 147.677 30.4833 145.344 30.4514C143.107 30.4514 141.31 31.1863 139.952 32.6563C138.594 34.1262 137.915 36.0276 137.915 38.3603ZM175.11 26.425C178.402 26.425 180.766 27.831 182.204 30.6431C182.939 29.301 183.946 28.2624 185.224 27.5275C186.502 26.7925 187.892 26.425 189.394 26.425C195.114 26.425 197.99 29.7163 198.022 36.2992V49.7203H193.708V36.8264C193.708 34.5895 193.309 32.9678 192.51 31.9613C191.711 30.9547 190.481 30.4514 188.819 30.4514C186.87 30.4514 185.416 31.0425 184.457 32.2249C183.499 33.4072 183.019 35.0369 183.019 37.114V49.7203H178.705V37.4975C178.705 34.8132 178.322 32.9678 177.555 31.9613C176.788 30.9547 175.574 30.4514 173.912 30.4514C172.123 30.4514 170.693 31.1384 169.622 32.5125C168.551 33.8866 168.016 35.6281 168.016 37.7371V49.7203H163.702V27.0002H167.729V30.5472H167.825C168.304 29.4288 169.255 28.4622 170.677 27.6473C172.099 26.8325 173.577 26.425 175.11 26.425ZM213.648 26.425C216.524 26.425 218.801 27.08 220.479 28.3901C222.156 29.7003 223.043 31.5218 223.139 33.8545V46.0294C223.139 47.1797 223.203 48.41 223.331 49.7202H219.496C219.4 48.6976 219.352 47.5472 219.352 46.269H219.256C218.266 47.739 217.123 48.7776 215.829 49.3846C214.535 49.9917 213.025 50.2954 211.3 50.2954C208.967 50.2954 207.074 49.6722 205.62 48.426C204.165 47.1797 203.439 45.534 203.439 43.4889C203.439 40.9006 204.525 38.9432 206.698 37.6172C208.871 36.2911 211.938 35.628 215.901 35.628H219.113V34.8131C219.113 33.2793 218.609 32.073 217.603 31.1942C216.596 30.3153 215.278 29.876 213.648 29.876C212.434 29.876 211.371 30.0598 210.461 30.4273C209.55 30.7948 208.471 31.4738 207.225 32.4645L204.637 29.7802C207.098 27.6073 210.101 26.489 213.648 26.425ZM207.753 43.1535C207.753 45.6142 209.382 46.8443 212.642 46.8443C214.591 46.8443 216.149 46.2612 217.315 45.0948C218.482 43.9285 219.081 42.2428 219.113 40.0379V38.7917H216.668C213.856 38.7917 211.667 39.1512 210.101 39.8701C208.535 40.5891 207.753 41.6836 207.753 43.1535ZM240.634 26.425C241.433 26.425 242.072 26.5209 242.552 26.7126L242.36 31.3621C241.529 31.1384 240.81 31.0266 240.203 31.0266C235.953 31.0266 233.796 33.3912 233.732 38.1206V49.7203H229.418V27.0002H233.732V30.4993H233.828C234.403 29.285 235.33 28.3024 236.608 27.5515C237.886 26.8005 239.228 26.425 240.634 26.425ZM251.467 13.4832V36.8744L261.293 27.0002H267.285L256.644 37.3537L268.148 49.7203H262.012L251.467 37.9289V49.7203H247.153V13.4832H251.467ZM282.432 26.425C285.915 26.425 288.623 27.5194 290.556 29.7084C292.489 31.8974 293.472 34.9091 293.504 38.7437V39.942H275.29C275.29 41.7955 276.033 43.3532 277.519 44.6155C279.004 45.8778 280.818 46.5248 282.959 46.5568C285.324 46.5568 287.401 45.4223 289.19 43.1535L292.45 45.646C290.021 48.7456 286.666 50.2955 282.384 50.2955C278.901 50.2955 276.096 49.185 273.971 46.9642C271.847 44.7433 270.752 41.8752 270.688 38.3603C270.688 34.9731 271.783 32.153 273.971 29.9001C276.16 27.6473 278.98 26.489 282.432 26.425ZM288.903 36.4909C288.839 34.3499 288.231 32.7121 287.081 31.5778C285.931 30.4435 284.349 29.8762 282.336 29.8762C280.994 29.8762 279.787 30.2037 278.717 30.8588C277.646 31.5139 276.808 32.3607 276.2 33.3992C275.593 34.4377 275.29 35.4683 275.29 36.4909H288.903ZM304.672 20.6252L304.672 27.0002H310.856V30.739H304.672V41.6676C304.672 43.1376 304.88 44.272 305.295 45.0708C305.711 45.8696 306.59 46.2692 307.932 46.2692C309.21 46.2692 310.233 46.0455 310.999 45.5981V49.5286C310.169 49.9759 308.858 50.2316 307.069 50.2955C305.343 50.2955 304.009 50.0318 303.067 49.5046C302.124 48.9773 301.437 48.2424 301.005 47.2997C300.574 46.357 300.358 44.8791 300.358 42.8659V30.7389H295.373V27.0002H300.358V20.6251L304.672 20.6252ZM326.817 26.425C330.3 26.425 333.009 27.5194 334.942 29.7084C336.875 31.8974 337.858 34.9091 337.89 38.7437V39.942H319.675C319.675 41.7955 320.418 43.3532 321.904 44.6155C323.39 45.8778 325.204 46.5248 327.345 46.5568C329.709 46.5568 331.786 45.4223 333.576 43.1535L336.835 45.646C334.407 48.7456 331.051 50.2955 326.769 50.2955C323.286 50.2955 320.482 49.185 318.357 46.9642C316.232 44.7433 315.138 41.8752 315.074 38.3603C315.074 34.9731 316.168 32.153 318.357 29.9001C320.546 27.6473 323.366 26.489 326.817 26.425ZM333.288 36.4909C333.224 34.3499 332.617 32.7121 331.467 31.5778C330.316 30.4435 328.735 29.8762 326.721 29.8762C325.379 29.8762 324.173 30.2037 323.102 30.8588C322.032 31.5139 321.193 32.3607 320.586 33.3992C319.979 34.4377 319.675 35.4683 319.675 36.4909H333.288ZM354.283 26.425C355.082 26.425 355.721 26.5209 356.2 26.7126L356.008 31.3621C355.177 31.1384 354.458 31.0266 353.851 31.0266C349.601 31.0266 347.444 33.3912 347.38 38.1206V49.7203H343.066V27.0002H347.38V30.4993H347.476C348.051 29.285 348.978 28.3024 350.256 27.5515C351.535 26.8005 352.877 26.425 354.283 26.425Z" fill="#111111"/>
</g>
<defs>
<clipPath id="clip0_1_2">
<rect width="356" height="59" fill="white"/>
</clipPath>
</defs>
</svg>
